<svg width="628" height="292" viewBox="0 0 628 292" fill="none" xmlns="http://www.w3.org/2000/svg">
<path d="M496.258 5.88837C488.407 -1.96279 475.813 -1.96279 467.962 5.88837C460.11 13.7395 460.11 26.3341 467.962 34.1852L559.395 125.618H19.955C8.83255 125.618 0 134.615 0 145.574C0 156.696 8.99612 165.692 19.955 165.692H559.231L467.798 257.125C459.947 264.977 459.947 277.571 467.798 285.422C471.724 289.348 476.794 291.311 482.028 291.311C487.262 291.311 492.333 289.348 496.258 285.422L621.877 159.804C625.639 156.042 627.765 150.971 627.765 145.574C627.765 140.339 625.639 135.105 621.877 131.343L496.258 5.88837Z" fill="black"/>
</svg>
